# xmcd CD database file
#
# Track frame offsets:
#	150
#	16908
#	32058
#
# Disc length: 600 seconds
#
# Revision: 0
# Processed by: cddbd v1.5PL3 Copyright (c) Steve Scherf et al.
# Submitted via: CDex 1.51
#
DISCID=18025603
DTITLE=SHUUBI - FREE
DYEAR=2003
DGENRE=J-POP
TTITLE0=風と星と月と雨
TTITLE1=ママ
TTITLE2=京都21
EXTD=YEAR: 2003
EXTT0=
EXTT1=
EXTT2=
PLAYORDER=
